<?xml version="1.0" encoding="UTF-8" standalone="no"?>
<svg
   xmlns:dc="http://purl.org/dc/elements/1.1/"
   xmlns:cc="http://creativecommons.org/ns#"
   xmlns:rdf="http://www.w3.org/1999/02/22-rdf-syntax-ns#"
   xmlns:svg="http://www.w3.org/2000/svg"
   xmlns="http://www.w3.org/2000/svg"
   xmlns:sodipodi="http://sodipodi.sourceforge.net/DTD/sodipodi-0.dtd"
   xmlns:inkscape="http://www.inkscape.org/namespaces/inkscape"
   version="1.0"
   width="1200.000000pt"
   height="854.000000pt"
   viewBox="0 0 1200.000000 854.000000"
   preserveAspectRatio="xMidYMid meet"
   id="svg20"
   sodipodi:docname="emaild.svg"
   inkscape:version="0.92.3 (2405546, 2018-03-11)">
  <defs
     id="defs24" />
  <sodipodi:namedview
     pagecolor="#ffffff"
     bordercolor="#666666"
     borderopacity="1"
     objecttolerance="10"
     gridtolerance="10"
     guidetolerance="10"
     inkscape:pageopacity="0"
     inkscape:pageshadow="2"
     inkscape:window-width="2560"
     inkscape:window-height="1329"
     id="namedview22"
     showgrid="false"
     inkscape:zoom="1.6580796"
     inkscape:cx="774.43371"
     inkscape:cy="529.64276"
     inkscape:window-x="0"
     inkscape:window-y="55"
     inkscape:window-maximized="1"
     inkscape:current-layer="layer1" />
  <metadata
     id="metadata2">
Created by potrace 1.16, written by Peter Selinger 2001-2019
<rdf:RDF>
  <cc:Work
     rdf:about="">
    <dc:format>image/svg+xml</dc:format>
    <dc:type
       rdf:resource="http://purl.org/dc/dcmitype/StillImage" />
  </cc:Work>
</rdf:RDF>
</metadata>
  <g
     inkscape:groupmode="layer"
     id="layer1"
     inkscape:label="bg"
     style="display:inline">
    <rect
       style="fill:#fffbf5;fill-opacity:1;stroke-width:0.55675757"
       id="rect856"
       width="1200.8508"
       height="857.61865"
       x="5.9575564e-06"
       y="-1.809316" />
  </g>
  <g
     inkscape:groupmode="layer"
     id="layer2"
     inkscape:label="fg"
     style="display:inline">
    <g
       id="g3730"
       transform="translate(-20.413086,11.07203)">
      <g
         id="g18"
         transform="matrix(0.1,0,0,-0.1,-47.567796,840.80929)"
         style="fill:#000000;stroke:none">
        <path
           inkscape:connector-curvature="0"
           id="path4"
           d="m 7780,4715 v -55 h 40 40 v 55 55 h -40 -40 z" />
        <path
           inkscape:connector-curvature="0"
           id="path6"
           d="m 8060,4315 v -455 h 35 35 v 455 455 h -35 -35 z" />
        <path
           inkscape:connector-curvature="0"
           id="path8"
           d="m 8840,4595 c 0,-96 -3,-175 -6,-175 -3,0 -14,10 -24,23 -10,13 -42,36 -72,52 -47,27 -62,30 -138,30 -99,0 -143,-17 -202,-78 -61,-63 -82,-131 -82,-267 0,-98 3,-122 22,-164 35,-77 67,-112 129,-142 47,-23 70,-28 128,-28 87,0 146,25 203,85 l 42,43 v -57 -57 h 35 35 v 455 455 h -35 -35 z m -110,-169 c 100,-66 136,-268 70,-395 -70,-137 -247,-162 -346,-48 -99,112 -79,367 35,443 72,47 169,47 241,0 z" />
        <path
           inkscape:connector-curvature="0"
           id="path12"
           d="m 6185,4512 c -22,-10 -55,-35 -73,-56 l -32,-37 v 46 45 h -40 -40 v -325 -325 h 39 40 l 3,233 c 3,226 4,233 28,277 33,59 87,90 158,90 70,0 106,-20 126,-70 13,-33 16,-83 16,-285 v -245 h 34 34 l 5,218 c 2,133 9,233 17,257 17,55 78,111 132,122 92,19 161,-17 178,-93 5,-21 10,-144 10,-271 v -233 h 36 35 l -3,268 c -3,263 -3,268 -28,312 -63,113 -241,124 -340,21 l -46,-47 -26,38 c -41,56 -70,71 -151,75 -56,3 -81,0 -112,-15 z" />
        <path
           inkscape:connector-curvature="0"
           id="path14"
           transform="matrix(7.5000001,0,0,-7.5000001,0,8540)"
           d="M 978.06641,534.86719 C 972.89974,534.83385 967.66706,535.2 964.40039,536 c -10.26667,2.4 -19.33346,11.20026 -21.4668,20.93359 l -1.33398,5.73243 h 4.93359 c 4.4,-0.13334 5.06615,-0.66641 8.13282,-7.06641 C 958.93268,546.66628 964.00039,544 976.40039,544 c 10.8,0 17.46563,2.66615 20.26563,8.13281 2.53333,4.66667 2.53424,15.06641 0.26757,17.06641 -2,1.6 -9.20091,3.20143 -28.26757,6.13476 -20.13334,3.06667 -28.53321,9.19948 -30.53321,22.13282 -0.53333,2.93333 -0.26679,7.60039 0.53321,10.40039 3.2,11.86666 12.53333,17.86666 28,18 10.8,0 18.93346,-2.80117 27.46679,-9.20117 5.33334,-4.13334 5.86719,-4.13282 5.86719,-0.13282 0,4 5.7332,8.80078 10.5332,8.80078 7.0667,0 9.4668,-1.46679 9.4668,-5.46679 0,-3.46667 -0.4007,-3.86641 -3.334,-3.06641 -6.9333,1.73333 -7.332,-10e-4 -7.332,-30.66797 0,-16.4 -0.6668,-30.40013 -1.4668,-33.46679 -1.8667,-6.8 -9.73322,-14.66654 -16.53322,-16.53321 -3,-0.8 -8.10091,-1.23229 -13.26757,-1.26562 z m 19.66601,43.93359 c 0.53334,-0.13333 0.9336,4.4 0.9336,10 0,14.53333 -4.40027,21.19857 -16.9336,25.86524 -13.33333,4.93333 -25.99974,2.66705 -31.0664,-5.59961 -3.46667,-5.73334 -3.33295,-10.26719 0.40039,-15.86719 4.13333,-6.26667 10.66731,-8.9332 25.33398,-10.5332 6.8,-0.8 14.13229,-1.99987 16.26563,-2.53321 2.26666,-0.66666 4.39974,-1.33203 5.0664,-1.33203 z"
           style="stroke-width:0.13333333" />
        <path
           inkscape:connector-curvature="0"
           id="path16"
           d="m 7780,4185 v -325 h 35 35 v 325 325 h -35 -35 z" />
      </g>
      <path
         inkscape:connector-curvature="0"
         id="path912"
         d="m 469.43788,492.66931 c -33.90049,-6.15669 -55.94262,-25.14066 -63.55749,-54.73943 -2.06677,-8.03346 -3.00028,-20.65783 -2.20341,-29.79807 2.49478,-28.61564 16.10149,-49.04407 40.18332,-60.3292 29.45439,-13.80279 64.34039,-6.65168 82.36732,16.88407 9.02677,11.78524 12.17729,20.9253 12.46683,37.64672 0.19175,11.07356 -2.01395,28.06109 -8.03264,37.21147 -6.14783,9.3467 -15.82129,14.66663 -26.98341,18.32504 -5.92976,1.94352 -7.64534,2.17327 -16.01614,2.14498 -7.4065,-0.0251 -10.62774,-0.38773 -15.3412,-1.72737 -21.37504,-6.07513 -33.42736,-21.55423 -33.66821,-43.24095 -0.13548,-12.19921 3.78515,-22.429 11.88801,-31.01846 10.60655,-11.2435 25.44738,-14.32492 38.38491,-7.9699 8.76008,4.30301 13.62161,11.09264 16.80216,23.46595 1.51977,5.91231 2.24295,17.78018 1.18582,19.45991 -0.4526,0.71916 -6.35774,0.9375 -25.35533,0.9375 h -24.76534 l 0.50004,2.4375 c 2.19639,10.70646 11.40896,18.35444 24.38803,20.24616 11.86959,1.73001 25.44709,1.00118 33.51207,-7.62031 7.3949,-7.90518 8.8699,-18.2316 9.00135,-32.31335 0.10242,-10.97205 -3.33411,-20.52351 -9.77453,-28.24732 -11.04448,-13.24532 -22.31965,-16.88024 -40.25778,-16.94595 -6.44188,-0.0236 -8.92141,0.31447 -13.62499,1.8577 -18.08783,5.93456 -31.05193,19.10752 -36.74361,37.33557 -1.5524,4.97167 -1.7564,7.10587 -1.7564,18.375 0,10.10383 0.29203,13.8396 1.40709,18 5.9542,22.21568 21.64627,37.14017 44.28265,42.11657 2.92064,0.64209 10.37276,1.33989 16.56026,1.55065 17.27219,0.58838 29.10083,-2.16628 39.44573,-9.18613 2.72016,-1.84584 5.25141,-3.35196 5.625,-3.34689 0.3736,0.005 2.35789,3.2557 4.40954,7.22367 l 3.73027,7.21449 -2.60527,2.20438 c -4.08833,3.45924 -15.49957,8.67945 -23.6588,10.823 -10.40871,2.73451 -29.76324,3.20824 -41.79585,1.023 z M 490.27774,402.687 c 0.85857,-1.38923 -1.43631,-7.03627 -3.83376,-9.43371 -4.66062,-4.66062 -13.77323,-5.20065 -19.77213,-1.17174 -3.01946,2.02789 -7.49991,7.77967 -7.50638,9.63633 -0.002,0.68899 3.63731,0.97699 14.43429,1.14217 7.94063,0.12148 14.83946,0.29752 15.33074,0.3912 0.49128,0.0937 1.09753,-0.16024 1.34724,-0.56425 z"
         style="display:inline;fill:#eb89b5;fill-opacity:1;stroke-width:0.75"
         sodipodi:nodetypes="sssssssccsssccssccsssssssssccccscccsccscscc" />
    </g>
  </g>
</svg>
